<svg xmlns="http://www.w3.org/2000/svg" width="256" height="256" viewBox="18 14 220 226"><defs><mask id="ink"><rect width="256" height="256" fill="black"/><g transform="translate(64 60)" fill="white" stroke="white" stroke-width="4" stroke-linejoin="round" stroke-linecap="round"><path d="M47 41c0-15 7-23 17-23s17 8 17 23z"/><path d="M38 42h52" stroke-width="8"/><circle cx="64" cy="58" r="13" fill="none" stroke-width="6"/><path d="M56 63q8 5 16 0" fill="none" stroke-width="4"/><rect x="38" y="78" width="52" height="42" rx="5" fill="none" stroke-width="7"/><rect x="53" y="72" width="22" height="10" rx="3" stroke="none"/><path d="M50 99l9 9 18-18" fill="none" stroke-width="7"/></g></mask></defs><g transform="rotate(-9 128 128)"><circle cx="128" cy="132" r="104" fill="#241c15" opacity=".35"/><circle cx="128" cy="124" r="104" fill="#f3e3bd" stroke="#241c15" stroke-width="10"/><circle cx="128" cy="124" r="86" fill="none" stroke="#b8392b" stroke-width="14"/><circle cx="128" cy="124" r="70" fill="none" stroke="#b8392b" stroke-width="4" stroke-dasharray="6 9"/><rect width="256" height="256" fill="#2a2118" mask="url(#ink)"/></g></svg>
