<svg xmlns="http://www.w3.org/2000/svg" width="256" height="256" viewBox="0 0 256 256">
  <!-- Inspection token: no character silhouette. Large glasses and a checked document. -->
  <path d="M129 13C193 11 241 62 242 126s-46 117-112 117C65 244 15 195 14 130S63 15 129 13Z" fill="#f2e3bd" stroke="#30251c" stroke-width="10"/>
  <path d="M55 60C93 20 166 21 203 63M46 182c38 47 118 52 165-2" fill="none" stroke="#b73c2c" stroke-width="9" stroke-linecap="round"/>
  <g transform="rotate(-7 128 139)" stroke="#30251c" stroke-linecap="round" stroke-linejoin="round">
    <path d="m78 104 103 2-3 107-100-3Z" fill="#c39b5f" stroke-width="7"/>
    <path d="m88 116 80 2-3 81-78-2Z" fill="#fff0ce" stroke-width="5"/>
    <path d="m111 105 35 1-1 19-35-1Z" fill="#30251c" stroke-width="5"/>
    <path d="m105 167 15 15 29-33" fill="none" stroke="#ad3427" stroke-width="11"/>
  </g>
  <g fill="#acc2c0" stroke="#30251c" stroke-width="9" stroke-linecap="round">
    <circle cx="88" cy="84" r="26"/><circle cx="166" cy="84" r="26"/>
    <path d="M114 80q13-11 26 0M60 78l-12-7m146 7 12-7" fill="none"/>
    <path d="m77 87 18-16m60 16 18-16" stroke="#fff2d3" stroke-width="6"/>
  </g>
</svg>
